Simulation
nRows=36
nColumns=15
endheader
time  TH_x TH_y TH_z SC_y  SC_z  SC_x  AC_y  AC_z  AC_x  GH_y  GH_z  GH_yy  EL_x  PS_y
5.745  0.000000  0.000000  0.000000  -50.05265264865255  18.82168120630765  30.085724950637307  74.02795694284379  -4.302170150774318  28.243457185145274  -9.575918965150347  62.63824185984434  -13.937238716338133  18.337322827789947  120.000000
5.80245  0.000000  0.000000  0.000000  -48.79937990947152  17.594686420064598  26.36335902529121  74.2040273907932  -4.272973081521988  28.238003547138447  -9.893383706027281  62.06345016326386  -13.20183511136412  18.635816058553985  120.000000
5.8599  0.000000  0.000000  0.000000  -47.36558543298697  15.881606038437878  21.911282065503485  74.30661955811223  -4.247693421694982  28.250770654861803  -10.436254423325087  61.364455214723236  -11.894507343994281  19.023051986990417  120.000000
5.91735  0.000000  0.000000  0.000000  -45.88789807481505  13.636996416073064  16.94358539129188  74.22805860276951  -4.286481895605527  28.232940812947533  -11.163351449810754  60.63133698813653  -9.991828827151956  19.41597443893625  120.000000
5.9748  0.000000  0.000000  0.000000  -44.50330321698822  10.854529596420113  11.707604329212948  73.85498000720419  -4.463668041286693  28.117952627646304  -11.987343830506472  59.95878515876247  -7.549846930996429  19.723827212501636  120.000000
6.03225  0.000000  0.000000  0.000000  -43.28606256576145  7.583850790944955  6.472461181470051  73.09241008629266  -4.8507137142552885  27.832493787266586  -12.833666830695966  59.4119653260836  -4.7089660060168335  19.870246507645188  120.000000
6.089700000000001  0.000000  0.000000  0.000000  -42.17463002935777  3.9501690678483787  1.5372598899730952  71.89041901530146  -5.492513529142966  27.31411480832906  -13.715581749262574  58.97815108197547  -1.6622747162409461  19.795704886273075  120.000000
6.14715  0.000000  0.000000  0.000000  -40.96979526915193  0.18654994961743615  -2.7714676476078552  70.26695711940891  -6.390233008560744  26.524052172925614  -14.717991160361148  58.52032627899287  1.3827667803183408  19.45572033026349  120.000000
6.2046  0.000000  0.000000  0.000000  -39.486928518928  -3.3533182033902764  -6.133738718248054  68.31069284582512  -7.497954003166809  25.458056367205387  -15.843416051608276  57.76485281350142  4.220682512767266  18.84469344917606  120.000000
6.26205  0.000000  0.000000  0.000000  -37.8055363105213  -6.2247086311731215  -8.345291396886545  66.17318481804183  -8.73382278659377  24.140397136975384  -16.818245854972936  56.36427287072039  6.6390785341687835  18.043816238703602  120.000000
6.3195  0.000000  0.000000  0.000000  -36.26035830471781  -8.00416330603695  -9.353504001042248  64.03419688956096  -10.04415989622965  22.61516707867186  -17.200323675199883  54.02892480662864  8.456586357807062  17.20132454302888  120.000000
6.37695  0.000000  0.000000  0.000000  -35.112092839057084  -8.507984137959584  -9.211799585073859  62.03571272133975  -11.364585422502355  20.88992356988064  -16.71024113461704  50.63126970674486  9.587201431528596  16.422064644215297  120.000000
6.4344  0.000000  0.000000  0.000000  -34.419539448347024  -7.90988241671871  -8.126011989909628  60.20460265188136  -12.406223044047758  18.86295147848735  -15.252140234949358  46.12298387944039  10.016598760832775  15.758396890718755  120.000000
6.49185  0.000000  0.000000  0.000000  -34.09146109012453  -6.635192755592177  -6.482537623648783  58.46952906586725  -12.716919170682766  16.414062495401257  -12.701890100989166  40.567481492805605  9.672819803244792  15.265640394244574  120.000000
6.549300000000001  0.000000  0.000000  0.000000  -33.98294388165334  -5.074277712686738  -4.744251507062606  56.75236510446321  -12.048255506373613  13.649082042472092  -8.789489008879894  34.28304779513396  8.30495506234724  15.003117420345532  120.000000
6.60675  0.000000  0.000000  0.000000  -34.043011075266186  -3.4906510111023166  -3.3265131852973524  54.98994738682323  -10.463682921518476  10.870487244296186  -2.9925864129919226  27.82735508349735  5.382851011306985  14.99643254500214  120.000000
6.6642  0.000000  0.000000  0.000000  -34.29642477255503  -2.0956075707141206  -2.5109667676099554  53.14558908867113  -8.192247202974286  8.336851477787611  5.512657763077495  21.883161955701734  0.02844932990581471  15.213714576521074  120.000000
6.72165  0.000000  0.000000  0.000000  -34.765665366883795  -0.9987205446671198  -2.387566380495418  51.23050292989965  -5.507124911816841  6.208186798063295  17.624164681580627  17.062068429711797  -8.778477140927693  15.585966574128992  120.000000
6.7791  0.000000  0.000000  0.000000  -35.42097027253689  -0.21423433530371258  -2.875436548874705  49.3114968834211  -2.6600036572884407  4.5542830780792505  33.66904661589976  13.775027199326013  -21.483439980156074  16.028246941187906  120.000000
6.83655  0.000000  0.000000  0.000000  -36.226460030298334  0.2973469623331371  -3.7995478706926993  47.4525726698576  0.15828049999339555  3.380572424952346  51.93751494627438  12.108566637397875  -36.42329433033566  16.48706744794932  120.000000
6.894  0.000000  0.000000  0.000000  -37.13459793503287  0.6062810418786955  -4.976192723373079  45.6962234519832  2.8396833496050005  2.6299956878897595  68.80596681717748  11.696201735297677  -50.03688401981142  16.901739509054032  120.000000
6.95145  0.000000  0.000000  0.000000  -38.07298354781249  0.7812569589177341  -6.253532530127712  44.10756479245011  5.300978307240956  2.216915672915705  81.99332068493787  11.960867102721426  -60.159762182574205  17.198755917490654  120.000000
7.008900000000001  0.000000  0.000000  0.000000  -38.98404927160149  0.8687745083916886  -7.511391034542683  42.739978552527546  7.455338180404826  2.0959664558988638  91.58342674352375  12.449307104029101  -66.99664755978608  17.3403271590244  120.000000
7.06635  0.000000  0.000000  0.000000  -39.83282144493582  0.8962912961601527  -8.666530085169835  41.643338882860235  9.261084258274806  2.2150929744072707  98.45674577171799  12.903219517662652  -71.53506375326918  17.33234440306821  120.000000
7.1238  0.000000  0.000000  0.000000  -40.60342365932209  0.9033857603104373  -9.667647954979527  40.877157297131745  10.725371910960778  2.4933800492837577  103.38907545502485  13.20459710913512  -74.62711477573738  17.23040579394891  120.000000
7.18125  0.000000  0.000000  0.000000  -41.30031709134631  0.9236551730641989  -10.47682016214586  40.448974504711636  11.86541099076747  2.8677900486769725  106.99400492046435  13.316287740299291  -76.90965441456403  17.117393426940087  120.000000
7.2387  0.000000  0.000000  0.000000  -41.93492248560663  0.9720719197996947  -11.068463887041535  40.29614275003399  12.700688623663355  3.299587527151655  109.77115451522332  13.251535134277816  -78.84350434964364  17.071175221471925  120.000000
7.29615  0.000000  0.000000  0.000000  -42.50826132663008  1.0458714389539574  -11.436246801038804  40.32247724158972  13.264355542574119  3.7509268691783086  112.07976924396732  13.051571637345612  -80.70768847849378  17.130174000423363  120.000000
7.3536  0.000000  0.000000  0.000000  -43.01275363792555  1.1380151653749428  -11.593905278737413  40.445841157278394  13.601815748551829  4.174676476161833  114.11318971416617  12.774724009466556  -82.5988118942743  17.287402656269215  120.000000
7.41105  0.000000  0.000000  0.000000  -43.43462727523038  1.2555431092084057  -11.570417779622929  40.622137607924216  13.759258787640217  4.521632194840657  115.9281857779773  12.482008141912278  -84.47714650716426  17.50942843730238  120.000000
7.468500000000001  0.000000  0.000000  0.000000  -43.769087943460825  1.408677977891193  -11.398246719625353  40.82563430905073  13.776719604615595  4.753958349777487  117.50585462619865  12.214491702030504  -86.24054440836484  17.757020612344867  120.000000
7.52595  0.000000  0.000000  0.000000  -44.0269165323719  1.596217126249192  -11.101750315498728  41.023497538131515  13.68296911762045  4.8560910289689225  118.82765707150564  11.983035998411136  -87.80749980016913  17.999045404272046  120.000000
7.5834  0.000000  0.000000  0.000000  -44.22815569574652  1.8094720333614585  -10.695567528454522  41.18990087334878  13.495623652350568  4.830627527527053  119.901915127931  11.778825506544074  -89.14341959882557  18.221852936153223  120.000000
7.64085  0.000000  0.000000  0.000000  -44.38829719001164  2.044103963051172  -10.189714761838074  41.31923925352188  13.224822403979115  4.689492670332992  120.77539361675262  11.590873569790245  -90.27075279218589  18.42836155283931  120.000000
7.6983  0.000000  0.000000  0.000000  -44.5231452116421  2.296125717192572  -9.590935258509601  41.41929085027733  12.877243494232335  4.450790692060568  121.52298682199319  11.4112332598535  -91.2576233283866  18.62763351602304  120.000000
7.75575  0.000000  0.000000  0.000000  -44.646400895898516  2.563708170500873  -8.903860890187515  41.504729962029906  12.457552356628085  4.137299216413701  122.24314738941206  11.236929728916593  -92.20655225380608  18.826723548704823  120.000000
